<?xml version="1.0" encoding="utf-8"?>
<!-- Generator: Adobe Illustrator 16.0.0, SVG Export Plug-In . SVG Version: 6.00 Build 0)  -->
<!DOCTYPE svg PUBLIC "-//W3C//DTD SVG 1.1//EN" "http://www.w3.org/Graphics/SVG/1.1/DTD/svg11.dtd">
<svg version="1.1" id="Layer_1" xmlns="http://www.w3.org/2000/svg" xmlns:xlink="http://www.w3.org/1999/xlink" x="0px" y="0px"
	 width="3840.875px" height="1080.246px" viewBox="0 0 3840.875 1080.246" enable-background="new 0 0 3840.875 1080.246"
	 xml:space="preserve">
<g>
	<g>
		<path fill-rule="evenodd" clip-rule="evenodd" d="M1,1081.246C1,877.533,1,673.82,1,470.107c1.481-0.206,2.976-0.656,4.442-0.579
			c10.31,0.541,19.271-2.244,26.445-10.036c4.097-4.449,9.288-7.532,14.457-10.543c4.505-2.625,10.004-4.346,14.644-4.232
			c6.665,0.164,12.979,3.65,16.663,10.246c2.637,4.719,5.812,9.114,11.944,9.374c7.634,0.321,14.644,4.483,22.487,3.523
			c1.077-0.131,2.473,0.137,3.331,0.758c8.604,6.236,19.238,9.21,26.935,16.935c2.576,2.586,5.953,3.604,9.586,4.69
			c5.851,1.75,12.261,2.029,17.569,5.348c9.994,6.249,21.669,3.464,32.286,6.28c0.452,0.12,1.066,0.071,1.473-0.146
			c8.456-4.522,18.304-4.253,27.074-8.115c6.102-2.687,13.686-0.564,19.871-4.304c0.444-0.269,1.288,0.2,1.946,0.199
			c10.45-0.02,21.334,1.067,27.28-10.594c0.202-0.396,0.757-0.634,1.182-0.891c7.252-4.377,14.152-9.336,22.069-12.597
			c5.941-2.447,11.85-4.733,15.182-11.289c1.498-2.947,5.189-5.466,8.445-6.699c9.085-3.438,17.581-7.765,25.678-13.127
			c11.975-7.933,25.79-12.296,38.409-19.044c2.689-1.438,4.761-4.022,8.179-4.415c8.04-0.923,14.439,2.321,19.569,7.892
			c5.398,5.861,10.315,12.204,13.425,19.698c1.292,3.115,3.555,4.751,6.998,4.498c10.724-0.792,21.421-0.46,32.167-0.039
			c10.712,0.42,15.371,3.033,18.822,13.332c1.083,3.231,2.954,5.214,6.475,6.169c3.374,0.916,7.195,1.869,7.93,6.504
			c0.216,1.365,1.712,3.474,2.943,2.81c2.374-1.282,5.516-0.537,7.3-2.663c2.219-2.644,4.177-2.028,6.898-0.79
			c1.697,0.773,3.993,2.817,5.955,0.884c2.823-2.78,6.417-4.705,8.49-8.358c3.271-5.765,4.721-6.157,10.719-2.73
			c2.433,1.39,4.052,1.048,6.317-0.23c3.508-1.981,6.316-5.281,10.83-5.497c6.847-0.326,11.689-4.424,15.349-9.662
			c5.629-8.052,18.61-11.975,24.706-5.939c5.506,5.45,11.678,5.362,17.362,3.502c9.372-3.067,18.074,0.439,26.845,1.417
			c7.369,0.821,14.299,1.465,21.563-0.182c4.619-1.048,9.597-2.028,14.169-1.362c5.014,0.732,10.004,2.428,14.973,3.779
			c6.78,1.843,12.053-0.329,17.012-4.497c3.468-2.916,6.771-6.325,11.725-2.466c2.296,1.789,4.513,0.307,6.514-0.769
			c6.447-3.465,10.818-2.85,16.019,2.433c1.061,1.078,2.177,2.06,3.897,1.837c5.494-0.711,10.236,1.615,14.248,4.721
			c5.296,4.101,10.21,4.974,15.674,0.844c0.832-0.628,1.739-1.146,2.765-0.848c10.124,2.946,17.755-5.242,27.151-6.237
			c3.893-0.413,7.904-2.434,12.264-2.654c4.756-0.24,10.022-0.439,13.322-4.451c1.776-2.158,3.723-3.181,6.094-3.739
			c5.31-1.25,10.654-2.365,16.01-3.404c5.637-1.093,10.694-2.921,14.585-7.614c3.59-4.329,7.503-8.496,11.808-12.096
			c4.417-3.695,7.625-8.919,13.476-10.878c6.001-2.011,10.127-6.823,14.424-10.94c5.358-5.135,9.531-11.501,14.271-17.291
			c4.908-5.997,10.391-6.436,17.17-2.487c6.967,4.058,12.45,9.954,19.105,14.352c5.524,3.649,11.83,6.176,16.174,11.534
			c2.611,3.219,4.638,6.855,7.744,9.739c7.533,6.997,15.679,13.268,23.159,20.361c6.958,6.597,15.357,11.596,21.905,18.837
			c2.5,2.765,6.022,4.105,10.407,3.275c5.563-1.053,11.333-2.556,16.999,0.317c1.189,0.604,2.979,0.341,4.418,0.071
			c3.171-0.596,6.111-0.638,9.218,0.73c2.924,1.289,5.338,0.592,7.725-2.331c5.732-7.022,11.39-14.506,21.727-15.159
			c1.028-0.065,2.153-0.981,2.957-1.78c3.727-3.702,8.279-6.076,12.861-8.479c3.813-2,7.528-4.158,10.321-7.652
			c5.985-7.487,13.91-11.056,23.458-11.305c2.821-0.074,5.697-0.448,7.892-2.566c3.605-3.48,7.839-6.188,11.619-9.408
			c5.682-4.84,11.081-4.178,16.866-0.665c1.671,1.015,3.206,2.856,5.357,2.28c6.94-1.86,10.727,2.442,14.828,6.838
			c2.951,3.165,4.252,7.612,7.591,10.14c2.209,1.672,2.893,3.033,2.898,5.631c0.01,4.085,1.007,8.345,5.221,9.921
			c6.902,2.583,12.176,6.872,16.589,12.646c4.721,6.179,8.965,12.839,15.687,17.226c2.648,1.729,5.741,4.438,8.524,3.193
			c5.783-2.586,11.879-4.975,15.086-11.528c3.139-6.413,8.008-11.788,12.674-17.195c1.429-1.654,3.413-1.921,5.516-1.571
			c3.4,0.566,5.947-0.938,8.639-2.936c9.084-6.74,17.387-14.407,26.139-21.535c2.837-2.311,7.14-2.469,9.063-5.93
			c1.629-2.93,4.149-4.618,6.816-6.387c4.532-3.005,9.454-5.758,13.104-9.655c2.855-3.05,5.719-5.285,9.521-6.79
			c6.513-2.578,13.56-5.126,17.997-10.417c7.056-8.415,15.424-15.378,24.299-21.145c12.562-8.161,20.295-20.945,31.857-29.892
			c5.593-4.327,6.224-12.793,12.911-16.551c2.88-1.619,5.198-4.394,8.191-5.615c7.767-3.168,14.577-8.468,23.378-9.511
			c3.663-0.434,8.462-0.346,11.021-3.664c6.908-8.961,14.801-17.06,21.956-25.763c9.318-11.335,21.451-20.003,29.752-32.224
			c0.354-0.521,1.043-0.812,1.574-1.212c8.457-6.38,18.601-10.064,26.859-16.77c0.363-0.295,0.903-0.425,1.384-0.515
			c10.234-1.923,20.654-3.669,30.913-1.984c5.047,0.828,10.965,2.595,13.039,9.301c1.396,4.519,4.375,8.741,7.232,12.3
			c6.627,8.255,15.633,14.148,24.594,19.681c10.574,6.529,22.339,11.029,31.427,20.074c4.312,4.291,10.587,6.105,15.513,9.892
			c9.587,7.369,19.815,13.456,32.642,12.692c0.605-0.036,1.443,0.174,1.825,0.59c5.793,6.302,14.089,6.637,21.525,8.506
			c5.835,1.467,11.022,3.997,15.733,7.191c8.93,6.056,18.03,11.793,27.397,17.116c3.53,2.007,7.21,3.197,11.364,1.175
			c2.232-1.086,5.118-1.432,7.286-0.316c6.301,3.245,12.853,6.317,18.421,10.606c10.229,7.877,21.157,14.098,33.475,17.926
			c1.401,0.436,2.776,1.167,3.97,2.027c8.783,6.333,18.121,11.458,28.761,14.005c8.692,2.08,10.884,4.975,10.861,13.675
			c-0.021,8.331,0,16.663,0.001,24.994c0.014,156.023,0.027,312.049,0.039,468.072c0.006,70.345,0.008,140.691,0.01,211.036
			c0,8.773-0.006,8.781-8.523,8.781c-635.11,0.001-1270.221,0.002-1905.332-0.015C5.645,1081.616,3.322,1081.375,1,1081.246z"/>
		<path fill-rule="evenodd" clip-rule="evenodd" fill="none" d="M1,1081.246c2.322,0.129,4.645,0.37,6.967,0.37
			c635.111,0.017,1270.221,0.016,1905.332,0.015c8.518,0,8.523-0.008,8.523-8.781c-0.002-70.345-0.004-140.691-0.01-211.036
			c-0.012-156.023-0.025-312.049-0.039-468.072c-0.001-8.331-0.022-16.663-0.001-24.994c0.022-8.7-2.169-11.595-10.861-13.675
			c-10.64-2.547-19.978-7.672-28.761-14.005c-1.193-0.86-2.568-1.591-3.97-2.027c-12.317-3.828-23.245-10.049-33.475-17.926
			c-5.568-4.289-12.12-7.361-18.421-10.606c-2.168-1.116-5.054-0.77-7.286,0.316c-4.154,2.022-7.834,0.832-11.364-1.175
			c-9.367-5.323-18.468-11.06-27.397-17.116c-4.711-3.194-9.898-5.724-15.733-7.191c-7.437-1.869-15.732-2.204-21.525-8.506
			c-0.382-0.416-1.22-0.626-1.825-0.59c-12.826,0.764-23.055-5.324-32.642-12.692c-4.926-3.787-11.201-5.601-15.513-9.892
			c-9.088-9.045-20.853-13.545-31.427-20.074c-8.961-5.533-17.967-11.426-24.594-19.681c-2.857-3.559-5.836-7.781-7.232-12.3
			c-2.074-6.706-7.992-8.473-13.039-9.301c-10.259-1.685-20.679,0.061-30.913,1.984c-0.48,0.09-1.021,0.22-1.384,0.515
			c-8.259,6.706-18.402,10.389-26.859,16.77c-0.531,0.4-1.221,0.691-1.574,1.212c-8.301,12.221-20.434,20.889-29.752,32.224
			c-7.155,8.703-15.048,16.802-21.956,25.763c-2.559,3.318-7.357,3.23-11.021,3.664c-8.801,1.043-15.611,6.342-23.378,9.511
			c-2.993,1.221-5.312,3.996-8.191,5.615c-6.688,3.758-7.318,12.224-12.911,16.551c-11.563,8.946-19.296,21.73-31.857,29.892
			c-8.875,5.767-17.243,12.729-24.299,21.145c-4.438,5.291-11.484,7.839-17.997,10.417c-3.803,1.505-6.666,3.74-9.521,6.79
			c-3.649,3.897-8.571,6.65-13.104,9.655c-2.667,1.769-5.188,3.457-6.816,6.387c-1.924,3.461-6.227,3.619-9.063,5.93
			c-8.752,7.128-17.055,14.795-26.139,21.535c-2.691,1.998-5.238,3.502-8.639,2.936c-2.103-0.351-4.087-0.083-5.516,1.571
			c-4.666,5.408-9.535,10.783-12.674,17.195c-3.207,6.553-9.303,8.941-15.086,11.528c-2.783,1.245-5.876-1.464-8.524-3.193
			c-6.722-4.387-10.966-11.046-15.687-17.226c-4.413-5.775-9.687-10.064-16.589-12.646c-4.214-1.577-5.211-5.836-5.221-9.921
			c-0.006-2.598-0.689-3.959-2.898-5.631c-3.339-2.528-4.64-6.976-7.591-10.14c-4.102-4.396-7.888-8.698-14.828-6.838
			c-2.151,0.576-3.687-1.265-5.357-2.28c-5.785-3.513-11.185-4.175-16.866,0.665c-3.78,3.22-8.014,5.927-11.619,9.408
			c-2.194,2.118-5.07,2.492-7.892,2.566c-9.548,0.249-17.473,3.818-23.458,11.305c-2.793,3.494-6.509,5.652-10.321,7.652
			c-4.582,2.403-9.135,4.776-12.861,8.479c-0.804,0.799-1.929,1.715-2.957,1.78c-10.337,0.653-15.994,8.137-21.727,15.159
			c-2.387,2.923-4.801,3.619-7.725,2.331c-3.106-1.368-6.047-1.326-9.218-0.73c-1.438,0.27-3.229,0.532-4.418-0.071
			c-5.666-2.874-11.437-1.371-16.999-0.317c-4.385,0.83-7.907-0.511-10.407-3.275c-6.548-7.241-14.947-12.24-21.905-18.837
			c-7.48-7.094-15.626-13.365-23.159-20.361c-3.106-2.884-5.133-6.52-7.744-9.739c-4.344-5.358-10.649-7.885-16.174-11.534
			c-6.656-4.397-12.138-10.293-19.105-14.352c-6.779-3.949-12.262-3.51-17.17,2.487c-4.74,5.79-8.913,12.156-14.271,17.291
			c-4.297,4.117-8.423,8.929-14.424,10.94c-5.851,1.959-9.059,7.183-13.476,10.878c-4.305,3.601-8.218,7.767-11.808,12.096
			c-3.891,4.693-8.948,6.521-14.585,7.614c-5.356,1.04-10.7,2.154-16.01,3.404c-2.372,0.558-4.318,1.581-6.094,3.739
			c-3.3,4.012-8.566,4.211-13.322,4.451c-4.359,0.22-8.371,2.241-12.264,2.654c-9.396,0.995-17.027,9.183-27.151,6.237
			c-1.026-0.299-1.933,0.22-2.765,0.848c-5.464,4.13-10.378,3.257-15.674-0.844c-4.012-3.106-8.754-5.432-14.248-4.721
			c-1.72,0.223-2.836-0.759-3.897-1.837c-5.201-5.283-9.572-5.898-16.019-2.433c-2.001,1.076-4.218,2.558-6.514,0.769
			c-4.954-3.858-8.257-0.449-11.725,2.466c-4.958,4.168-10.232,6.34-17.012,4.497c-4.969-1.351-9.959-3.047-14.973-3.779
			c-4.572-0.666-9.55,0.313-14.169,1.362c-7.264,1.647-14.194,1.003-21.563,0.182c-8.771-0.978-17.473-4.483-26.845-1.417
			c-5.684,1.86-11.855,1.948-17.362-3.502c-6.096-6.036-19.076-2.113-24.706,5.939c-3.66,5.238-8.502,9.335-15.349,9.662
			c-4.514,0.216-7.321,3.516-10.83,5.497c-2.265,1.278-3.884,1.62-6.317,0.23c-5.999-3.427-7.448-3.035-10.719,2.73
			c-2.074,3.653-5.667,5.579-8.49,8.358c-1.961,1.933-4.258-0.111-5.955-0.884c-2.721-1.238-4.679-1.854-6.898,0.79
			c-1.784,2.125-4.926,1.381-7.3,2.663c-1.23,0.664-2.727-1.445-2.943-2.81c-0.734-4.636-4.556-5.588-7.93-6.504
			c-3.521-0.956-5.392-2.938-6.475-6.169c-3.452-10.299-8.11-12.912-18.822-13.332c-10.746-0.421-21.442-0.753-32.167,0.039
			c-3.443,0.254-5.706-1.382-6.998-4.498c-3.11-7.494-8.027-13.837-13.425-19.698c-5.13-5.571-11.529-8.815-19.569-7.892
			c-3.418,0.393-5.49,2.977-8.179,4.415c-12.619,6.749-26.435,11.112-38.409,19.044c-8.097,5.362-16.593,9.689-25.678,13.127
			c-3.256,1.232-6.948,3.751-8.445,6.699c-3.332,6.555-9.24,8.842-15.182,11.289c-7.917,3.261-14.817,8.22-22.069,12.597
			c-0.424,0.257-0.98,0.495-1.182,0.891c-5.945,11.661-16.83,10.575-27.28,10.594c-0.658,0.001-1.502-0.468-1.946-0.199
			c-6.186,3.739-13.77,1.617-19.871,4.304c-8.77,3.862-18.618,3.593-27.074,8.115c-0.406,0.218-1.021,0.267-1.473,0.146
			c-10.616-2.816-22.292-0.031-32.286-6.28c-5.308-3.319-11.718-3.598-17.569-5.348c-3.633-1.085-7.01-2.104-9.586-4.69
			c-7.697-7.725-18.331-10.699-26.935-16.935c-0.858-0.622-2.253-0.889-3.331-0.758c-7.843,0.96-14.853-3.202-22.487-3.523
			c-6.132-0.259-9.307-4.655-11.944-9.374c-3.685-6.595-9.998-10.082-16.663-10.246c-4.64-0.113-10.138,1.608-14.644,4.232
			c-5.168,3.012-10.36,6.094-14.457,10.543c-7.174,7.792-16.135,10.577-26.445,10.036c-1.466-0.077-2.961,0.373-4.442,0.579
			C1,315.252,1.015,160.399,0.914,5.544C0.912,1.901,1.601,0.899,5.457,0.899c637.42,0.104,1274.84,0.105,1912.259-0.013
			c4.115-0.001,4.829,0.898,4.828,4.893c-0.114,357.215-0.114,714.429-0.006,1071.644c0.001,3.906-0.572,4.942-4.779,4.941
			c-637.419-0.125-1274.839-0.118-1912.258-0.181C4.037,1082.185,2.109,1083.339,1,1081.246z"/>
	</g>
</g>
<g>
	<g>
		<path fill-rule="evenodd" clip-rule="evenodd" d="M1921.438,1081.246c0-240.388,0-480.776,0-721.164
			c4.939-2.326,9.889-4.51,15.094-6.315c8.547-2.964,16.944-6.594,24.01-12.575c1.551-1.314,3.449-1.854,5.383-2.467
			c8.592-2.727,17.269-6.103,24.086-11.667c7.418-6.055,15.879-9.992,23.688-15.156c3.684-2.437,7.604-2.243,11.414-0.727
			c2.754,1.096,5.122,0.821,7.643-0.432c10.273-5.104,19.811-11.394,29.282-17.822c4.521-3.068,9.277-5.88,14.679-7.229
			c8.176-2.042,16.834-2.774,23.429-8.991c0.476-0.448,1.558-0.381,2.349-0.351c8.449,0.327,16.146-2.321,23.016-6.83
			c12.949-8.501,25.556-17.521,38.387-26.205c8.168-5.528,17.131-9.685,25.4-15.187c10.551-7.02,18.684-15.646,23.912-26.819
			c3.044-6.505,8.564-8.157,14.229-9.104c5.593-0.936,11.591-0.92,17.188,0.017c7.199,1.204,14.897,1.378,20.828,7.033
			c2.722,2.594,5.843,5.083,9.553,6.257c6.807,2.153,12.111,5.954,15.054,12.634c0.549,1.242,1.167,2.433,2.463,3.031
			c5.322,2.455,8.586,7.167,12.405,11.271c10.866,11.674,21.958,23.159,31.688,35.825c2.04,2.657,4.125,4.062,7.514,4.882
			c3.704,0.896,7.705,0.811,11.121,2.354c9.972,4.505,20.178,8.68,28.49,16.147c1.604,1.441,3.379,2.683,4.076,4.909
			c1.002,3.201,3.144,5.706,5.162,8.311c4.492,5.8,11.41,9.087,15.473,15.388c3.95,6.128,10.094,9.967,15.808,14.3
			c8.074,6.124,16.466,12.106,23.333,19.447c4.74,5.067,9.807,9.298,15.99,11.205c9.012,2.779,14.402,10.301,22.086,14.743
			c7.934,4.588,13.811,11.942,21.553,17.112c9.193,6.14,17.031,14.257,25.912,20.979c2.536,1.919,4.998,3.28,8.205,2.764
			c2.283-0.367,4.41-0.086,5.938,1.758c4.654,5.622,9.502,11.142,12.818,17.699c3.074,6.076,8.977,8.551,14.537,10.718
			c3.752,1.463,7.225-2.202,10.502-4.519c6.005-4.247,9.846-10.341,13.989-16.088c3.728-5.169,8.649-8.81,13.971-11.594
			c5.177-2.708,7.839-5.079,7.746-10.972c-0.038-2.418,0.227-4.292,2.833-5.101c1.21-0.376,1.864-1.364,2.295-2.487
			c2.037-5.306,6.326-8.846,10.154-12.693c2.063-2.074,5.018-3.076,7.847-2.359c2.996,0.76,5.112-0.316,7.4-1.81
			c5.882-3.84,11.575-4.421,17.215,0.742c2.933,2.685,6.649,4.55,9.415,7.37c3.065,3.126,6.549,4.333,10.688,4.474
			c8.963,0.305,16.414,3.732,22.222,10.67c1.489,1.778,3.003,3.772,4.951,4.891c6.911,3.97,14.157,7.373,20.169,12.773
			c0.985,0.886,2.271,1.475,3.688,1.263c2.552-0.384,4.424,1.057,6.459,2.196c5.523,3.09,9.564,7.802,13.24,12.706
			c2.182,2.909,4.609,3.303,7.337,2.167c3.085-1.282,6.017-1.535,9.208-0.794c2.482,0.577,4.998,0.306,7.342-0.73
			c2.686-1.189,5.212-1.183,8.176-0.572c5.59,1.148,11.758,2.813,16.396-2.188c6.046-6.517,13.059-11.79,19.966-17.279
			c5.708-4.536,10.505-10.243,16.322-14.609c5.527-4.148,10.45-8.651,14.415-14.281c2.602-3.694,5.682-6.907,9.645-9.248
			c3.865-2.282,7.699-4.642,11.36-7.232c5.819-4.117,10.946-9.137,17.157-12.78c5.889-3.456,11.746-2.815,16.088,2.371
			c2.563,3.061,5.045,6.193,7.447,9.381c5.303,7.04,11.168,14.039,18.838,17.951c9.385,4.786,16.182,12.018,23.104,19.292
			c6.148,6.46,12.064,12.479,21.883,13.046c5.193,0.3,10.287,2.393,15.418,3.705c1.104,0.281,2.408,0.259,3.07,1.424
			c3.018,5.302,8.438,5.938,13.461,5.943c9.379,0.008,17.422,4.503,26.066,6.863c4.783,1.305,9.104,4.141,14.346,2.295
			c1.006-0.354,1.965,0.046,2.791,0.705c5.645,4.506,10.629,3.181,16.096-0.901c4.018-3.001,8.73-5.481,14.299-4.556
			c1.648,0.275,2.764-0.961,3.791-2.07c4.625-4.987,9.555-5.662,15.648-2.3c2.148,1.186,4.471,2.687,6.947,0.711
			c4.252-3.394,8.012-1.158,10.443,1.922c3.373,4.272,8.158,5.374,12.545,5.892c4.463,0.527,9.426-0.781,13.77-2.378
			c4.109-1.511,7.727-2.405,12.301-1.914c5.127,0.551,10.027,2.159,15.158,2.446c11.025,0.617,21.645-2.404,32.461-3.631
			c2.723-0.309,5.111,0.084,7.752,0.548c5.422,0.952,11.654,4.365,16.258-1.127c6.922-8.255,21.539-4.349,27.555,4.415
			c3.396,4.948,8.168,8.666,14.51,9.375c2.527,0.283,4.51,1.416,6.742,2.451c3.162,1.466,5.506,5.844,10.014,3.803
			c7.898-3.579,7.898-3.577,12.551,3.299c4.574,6.761,8.545,8.241,15.758,5.379c2.164-0.858,2.996,0.371,4.279,1.374
			c5.771,4.508,8.92,3.899,11.891-2.327c0.686-1.439,1.502-1.857,3.15-2.376c5.15-1.622,9.729-3.785,11.154-10.339
			c1.271-5.839,5.678-9.72,12.221-9.91c10.697-0.311,21.281-2.673,32.135-0.768c4.359,0.766,9.963,1.713,12.539-4.304
			c3.121-7.286,7.836-13.519,13.1-19.328c5.121-5.65,11.256-8.999,19.305-8.518c3.613,0.216,5.391,3.025,8.25,4.271
			c9.736,4.249,19.168,9.195,28.828,13.63c10.891,5,19.93,13.36,31.566,17.03c6.85,2.161,12.299,6.329,15.834,12.813
			c1.145,2.102,3.266,3.3,5.512,4.107c9.949,3.572,18.846,9.092,27.656,14.792c1.447,0.937,2.541,1.934,3.305,3.538
			c1.844,3.869,5.289,5.459,9.207,6.983c9.066,3.527,19.348-0.8,28.033,4.713c0.82,0.521,2.383,0.309,3.432-0.055
			c2.779-0.964,5.127,0.238,7.691,0.916c12.537,3.311,24.412,10.63,38.242,6.459c1.207-0.364,2.742-0.251,3.957,0.15
			c3.285,1.087,6.178-0.013,9.217-1.005c6.777-2.215,13.152-5.397,20.174-7.169c5.395-1.36,11.633-1.47,15.943-6.19
			c4.213-4.614,9.758-7.384,15.152-10.328c4.516-2.466,8.797-6.399,13.566-7.111c6.521-0.972,12.984-2.415,19.49-3.186
			c7.764-0.92,13.275-3.566,17.051-10.813c3.355-6.443,10.197-10.312,16.914-9.516c9.318,1.103,18.354,4.919,25.189,11.996
			c8.24,8.529,17.635,13.856,29.936,12.788c3.037-0.263,4.385,1.46,4.361,4.631c-0.074,9.499,0.092,18.999,0.092,28.498
			c0.02,190.204,0.029,380.408,0.039,570.611c0,1.334-0.102,2.674-0.006,3.999c0.238,3.275-1.338,4.54-4.473,4.323
			c-1.326-0.092-2.666,0.004-4,0.004c-635.125,0.001-1270.25,0.002-1905.376-0.015
			C1926.083,1081.616,1923.76,1081.375,1921.438,1081.246z"/>
		<path fill-rule="evenodd" clip-rule="evenodd" fill="none" d="M1921.438,1081.246c2.322,0.129,4.646,0.37,6.968,0.37
			c635.126,0.017,1270.251,0.016,1905.376,0.015c1.334,0,2.674-0.096,4-0.004c3.135,0.217,4.711-1.048,4.473-4.323
			c-0.096-1.325,0.006-2.665,0.006-3.999c-0.01-190.203-0.02-380.407-0.039-570.611c0-9.499-0.166-18.999-0.092-28.498
			c0.023-3.17-1.324-4.894-4.361-4.631c-12.301,1.068-21.695-4.259-29.936-12.788c-6.836-7.077-15.871-10.893-25.189-11.996
			c-6.717-0.796-13.559,3.073-16.914,9.516c-3.775,7.247-9.287,9.893-17.051,10.813c-6.506,0.771-12.969,2.214-19.49,3.186
			c-4.77,0.712-9.051,4.645-13.566,7.111c-5.395,2.944-10.939,5.714-15.152,10.328c-4.311,4.721-10.549,4.83-15.943,6.19
			c-7.021,1.772-13.396,4.954-20.174,7.169c-3.039,0.992-5.932,2.092-9.217,1.005c-1.215-0.401-2.75-0.515-3.957-0.15
			c-13.83,4.171-25.705-3.149-38.242-6.459c-2.564-0.678-4.912-1.88-7.691-0.916c-1.049,0.363-2.611,0.575-3.432,0.055
			c-8.686-5.513-18.967-1.186-28.033-4.713c-3.918-1.524-7.363-3.114-9.207-6.983c-0.764-1.604-1.857-2.601-3.305-3.538
			c-8.811-5.701-17.707-11.221-27.656-14.792c-2.246-0.807-4.367-2.005-5.512-4.107c-3.535-6.484-8.984-10.652-15.834-12.813
			c-11.637-3.67-20.676-12.03-31.566-17.03c-9.66-4.435-19.092-9.381-28.828-13.63c-2.859-1.247-4.637-4.056-8.25-4.271
			c-8.049-0.481-14.184,2.868-19.305,8.518c-5.264,5.809-9.979,12.042-13.1,19.328c-2.576,6.017-8.18,5.069-12.539,4.304
			c-10.854-1.906-21.438,0.457-32.135,0.768c-6.543,0.189-10.949,4.07-12.221,9.91c-1.426,6.554-6.004,8.717-11.154,10.339
			c-1.648,0.519-2.465,0.937-3.15,2.376c-2.971,6.226-6.119,6.834-11.891,2.327c-1.283-1.002-2.115-2.232-4.279-1.374
			c-7.213,2.862-11.184,1.381-15.758-5.379c-4.652-6.876-4.652-6.878-12.551-3.299c-4.508,2.042-6.852-2.336-10.014-3.803
			c-2.232-1.035-4.215-2.167-6.742-2.451c-6.342-0.709-11.113-4.427-14.51-9.375c-6.016-8.764-20.633-12.67-27.555-4.415
			c-4.604,5.492-10.836,2.079-16.258,1.127c-2.641-0.464-5.029-0.856-7.752-0.548c-10.816,1.228-21.436,4.248-32.461,3.631
			c-5.131-0.287-10.031-1.895-15.158-2.446c-4.574-0.491-8.191,0.403-12.301,1.914c-4.344,1.597-9.307,2.905-13.77,2.378
			c-4.387-0.518-9.172-1.619-12.545-5.892c-2.432-3.08-6.191-5.316-10.443-1.922c-2.477,1.975-4.799,0.475-6.947-0.711
			c-6.094-3.362-11.023-2.687-15.648,2.3c-1.027,1.109-2.143,2.345-3.791,2.07c-5.568-0.925-10.281,1.555-14.299,4.556
			c-5.467,4.083-10.451,5.407-16.096,0.901c-0.826-0.659-1.785-1.06-2.791-0.705c-5.242,1.846-9.563-0.991-14.346-2.295
			c-8.645-2.36-16.688-6.855-26.066-6.863c-5.023-0.005-10.443-0.642-13.461-5.943c-0.662-1.166-1.967-1.143-3.07-1.424
			c-5.131-1.312-10.225-3.405-15.418-3.705c-9.818-0.566-15.734-6.585-21.883-13.046c-6.922-7.274-13.719-14.505-23.104-19.292
			c-7.67-3.912-13.535-10.912-18.838-17.951c-2.402-3.188-4.885-6.321-7.447-9.381c-4.342-5.186-10.199-5.826-16.088-2.371
			c-6.211,3.644-11.338,8.663-17.157,12.78c-3.661,2.59-7.495,4.951-11.36,7.232c-3.963,2.341-7.043,5.554-9.645,9.248
			c-3.965,5.629-8.888,10.132-14.415,14.281c-5.817,4.366-10.614,10.073-16.322,14.609c-6.907,5.49-13.92,10.762-19.966,17.279
			c-4.639,5-10.807,3.336-16.396,2.188c-2.964-0.611-5.49-0.617-8.176,0.572c-2.344,1.036-4.859,1.308-7.342,0.73
			c-3.191-0.741-6.123-0.488-9.208,0.794c-2.728,1.135-5.155,0.742-7.337-2.167c-3.676-4.903-7.717-9.615-13.24-12.706
			c-2.035-1.139-3.907-2.58-6.459-2.196c-1.416,0.212-2.702-0.377-3.688-1.263c-6.012-5.401-13.258-8.804-20.169-12.773
			c-1.948-1.119-3.462-3.112-4.951-4.891c-5.808-6.938-13.259-10.366-22.222-10.67c-4.139-0.141-7.622-1.347-10.688-4.474
			c-2.766-2.82-6.482-4.685-9.415-7.37c-5.64-5.163-11.333-4.582-17.215-0.742c-2.288,1.494-4.404,2.57-7.4,1.81
			c-2.829-0.717-5.784,0.285-7.847,2.359c-3.828,3.847-8.117,7.387-10.154,12.693c-0.431,1.123-1.085,2.111-2.295,2.487
			c-2.606,0.809-2.871,2.682-2.833,5.101c0.093,5.893-2.569,8.264-7.746,10.972c-5.321,2.784-10.243,6.424-13.971,11.594
			c-4.144,5.747-7.984,11.841-13.989,16.088c-3.277,2.317-6.75,5.982-10.502,4.519c-5.561-2.167-11.463-4.643-14.537-10.718
			c-3.316-6.557-8.164-12.078-12.818-17.699c-1.527-1.844-3.654-2.125-5.938-1.758c-3.207,0.516-5.669-0.845-8.205-2.764
			c-8.881-6.721-16.719-14.838-25.912-20.979c-7.742-5.17-13.619-12.524-21.553-17.112c-7.684-4.441-13.074-11.963-22.086-14.743
			c-6.184-1.906-11.25-6.138-15.99-11.205c-6.867-7.34-15.259-13.323-23.333-19.447c-5.714-4.333-11.857-8.172-15.808-14.3
			c-4.063-6.301-10.98-9.588-15.473-15.388c-2.019-2.605-4.16-5.109-5.162-8.311c-0.697-2.226-2.473-3.468-4.076-4.909
			c-8.313-7.468-18.519-11.642-28.49-16.147c-3.416-1.543-7.417-1.458-11.121-2.354c-3.389-0.82-5.474-2.225-7.514-4.882
			c-9.73-12.666-20.822-24.151-31.688-35.825c-3.819-4.104-7.083-8.816-12.405-11.271c-1.296-0.598-1.914-1.789-2.463-3.031
			c-2.942-6.68-8.247-10.481-15.054-12.634c-3.71-1.174-6.831-3.663-9.553-6.257c-5.931-5.655-13.629-5.829-20.828-7.033
			c-5.597-0.937-11.595-0.953-17.188-0.017c-5.665,0.946-11.186,2.598-14.229,9.104c-5.229,11.173-13.361,19.799-23.912,26.819
			c-8.27,5.501-17.232,9.659-25.4,15.187c-12.831,8.684-25.438,17.704-38.387,26.205c-6.869,4.509-14.566,7.157-23.016,6.83
			c-0.791-0.03-1.873-0.098-2.349,0.351c-6.595,6.217-15.253,6.95-23.429,8.991c-5.401,1.349-10.157,4.161-14.679,7.229
			c-9.472,6.428-19.009,12.718-29.282,17.822c-2.521,1.252-4.889,1.528-7.643,0.432c-3.811-1.516-7.73-1.709-11.414,0.727
			c-7.809,5.164-16.27,9.102-23.688,15.156c-6.817,5.564-15.494,8.94-24.086,11.667c-1.934,0.613-3.832,1.153-5.383,2.467
			c-7.065,5.981-15.463,9.611-24.01,12.575c-5.205,1.805-10.154,3.989-15.094,6.315c0-118.349,0.018-236.698-0.09-355.048
			c-0.003-3.35,0.564-4.133,4.057-4.132c637.752,0.102,1275.504,0.102,1913.256-0.005c3.701-0.001,4.305,0.875,4.303,4.388
			c-0.094,357.547-0.094,715.096-0.006,1072.643c0,3.423-0.471,4.429-4.264,4.428c-637.752-0.114-1275.504-0.108-1913.256-0.169
			C1924.143,1082.187,1922.338,1083.312,1921.438,1081.246z"/>
	</g>
</g>
</svg>
