<?xml version="1.0" encoding="utf-8"?>
<!-- Generator: Adobe Illustrator 16.0.0, SVG Export Plug-In . SVG Version: 6.00 Build 0)  -->
<!DOCTYPE svg PUBLIC "-//W3C//DTD SVG 1.1//EN" "http://www.w3.org/Graphics/SVG/1.1/DTD/svg11.dtd">
<svg version="1.1" id="Layer_1" xmlns="http://www.w3.org/2000/svg" xmlns:xlink="http://www.w3.org/1999/xlink" x="0px" y="0px"
	 width="1920.438px" height="1080.246px" viewBox="0 0 1920.438 1080.246" enable-background="new 0 0 1920.438 1080.246"
	 xml:space="preserve">
<g>
	<g>
		<path fill-rule="evenodd" clip-rule="evenodd" d="M1,1081.246C1,877.533,1,673.82,1,470.107c1.481-0.206,2.976-0.656,4.442-0.579
			c10.31,0.541,19.271-2.244,26.445-10.036c4.097-4.449,9.288-7.532,14.457-10.543c4.505-2.625,10.004-4.346,14.644-4.232
			c6.665,0.164,12.979,3.65,16.663,10.246c2.637,4.719,5.812,9.114,11.944,9.374c7.634,0.321,14.644,4.483,22.487,3.523
			c1.077-0.131,2.473,0.137,3.331,0.758c8.604,6.236,19.238,9.21,26.935,16.935c2.576,2.586,5.953,3.604,9.586,4.69
			c5.851,1.75,12.261,2.029,17.569,5.348c9.994,6.249,21.669,3.464,32.286,6.28c0.452,0.12,1.066,0.071,1.473-0.146
			c8.456-4.522,18.304-4.253,27.074-8.115c6.102-2.687,13.686-0.564,19.871-4.304c0.444-0.269,1.288,0.2,1.946,0.199
			c10.45-0.02,21.334,1.067,27.28-10.594c0.202-0.396,0.757-0.634,1.182-0.891c7.252-4.377,14.152-9.336,22.069-12.597
			c5.941-2.447,11.85-4.733,15.182-11.289c1.498-2.947,5.189-5.466,8.445-6.699c9.085-3.438,17.581-7.765,25.678-13.127
			c11.975-7.933,25.79-12.296,38.409-19.044c2.689-1.438,4.761-4.022,8.179-4.415c8.04-0.923,14.439,2.321,19.569,7.892
			c5.398,5.861,10.315,12.204,13.425,19.698c1.292,3.115,3.555,4.751,6.998,4.498c10.724-0.792,21.421-0.46,32.167-0.039
			c10.712,0.42,15.371,3.033,18.822,13.332c1.083,3.231,2.954,5.214,6.475,6.169c3.374,0.916,7.195,1.869,7.93,6.504
			c0.216,1.365,1.712,3.474,2.943,2.81c2.374-1.282,5.516-0.537,7.3-2.663c2.219-2.644,4.177-2.028,6.898-0.79
			c1.697,0.773,3.993,2.817,5.955,0.884c2.823-2.78,6.417-4.705,8.49-8.358c3.271-5.765,4.721-6.157,10.719-2.73
			c2.433,1.39,4.052,1.048,6.317-0.23c3.508-1.981,6.316-5.281,10.83-5.497c6.847-0.326,11.689-4.424,15.349-9.662
			c5.629-8.052,18.61-11.975,24.706-5.939c5.506,5.45,11.678,5.362,17.362,3.502c9.372-3.067,18.074,0.439,26.845,1.417
			c7.369,0.821,14.299,1.465,21.563-0.182c4.619-1.048,9.597-2.028,14.169-1.362c5.014,0.732,10.004,2.428,14.973,3.779
			c6.78,1.843,12.053-0.329,17.012-4.497c3.468-2.916,6.771-6.325,11.725-2.466c2.296,1.789,4.513,0.307,6.514-0.769
			c6.447-3.465,10.818-2.85,16.019,2.433c1.061,1.078,2.177,2.06,3.897,1.837c5.494-0.711,10.236,1.615,14.248,4.721
			c5.296,4.101,10.21,4.974,15.674,0.844c0.832-0.628,1.739-1.146,2.765-0.848c10.124,2.946,17.755-5.242,27.151-6.237
			c3.893-0.413,7.904-2.434,12.264-2.654c4.756-0.24,10.022-0.439,13.322-4.451c1.776-2.158,3.723-3.181,6.094-3.739
			c5.31-1.25,10.654-2.365,16.01-3.404c5.637-1.093,10.694-2.921,14.585-7.614c3.59-4.329,7.503-8.496,11.808-12.096
			c4.417-3.695,7.625-8.919,13.476-10.878c6.001-2.011,10.127-6.823,14.424-10.94c5.358-5.135,9.531-11.501,14.271-17.291
			c4.908-5.997,10.391-6.436,17.17-2.487c6.967,4.058,12.45,9.954,19.105,14.352c5.524,3.649,11.83,6.176,16.174,11.534
			c2.611,3.219,4.638,6.855,7.744,9.739c7.533,6.997,15.679,13.268,23.159,20.361c6.958,6.597,15.357,11.596,21.905,18.837
			c2.5,2.765,6.022,4.105,10.407,3.275c5.563-1.053,11.333-2.556,16.999,0.317c1.189,0.604,2.979,0.341,4.418,0.071
			c3.171-0.596,6.111-0.638,9.218,0.73c2.924,1.289,5.338,0.592,7.725-2.331c5.732-7.022,11.39-14.506,21.727-15.159
			c1.028-0.065,2.153-0.981,2.957-1.78c3.727-3.702,8.279-6.076,12.861-8.479c3.813-2,7.528-4.158,10.321-7.652
			c5.985-7.487,13.91-11.056,23.458-11.305c2.821-0.074,5.697-0.448,7.892-2.566c3.605-3.48,7.839-6.188,11.619-9.408
			c5.682-4.84,11.081-4.178,16.866-0.665c1.671,1.015,3.206,2.856,5.357,2.28c6.94-1.86,10.727,2.442,14.828,6.838
			c2.951,3.165,4.252,7.612,7.591,10.14c2.209,1.672,2.893,3.033,2.898,5.631c0.01,4.085,1.007,8.345,5.221,9.921
			c6.902,2.583,12.176,6.872,16.589,12.646c4.721,6.179,8.965,12.839,15.687,17.226c2.648,1.729,5.741,4.438,8.524,3.193
			c5.783-2.586,11.879-4.975,15.086-11.528c3.139-6.413,8.008-11.788,12.674-17.195c1.429-1.654,3.413-1.921,5.516-1.571
			c3.4,0.566,5.947-0.938,8.639-2.936c9.084-6.74,17.387-14.407,26.139-21.535c2.837-2.311,7.14-2.469,9.063-5.93
			c1.629-2.93,4.149-4.618,6.816-6.387c4.532-3.005,9.454-5.758,13.104-9.655c2.855-3.05,5.719-5.285,9.521-6.79
			c6.513-2.578,13.56-5.126,17.997-10.417c7.056-8.415,15.424-15.378,24.299-21.145c12.562-8.161,20.295-20.945,31.857-29.892
			c5.593-4.327,6.224-12.793,12.911-16.551c2.88-1.619,5.198-4.394,8.191-5.615c7.767-3.168,14.577-8.468,23.378-9.511
			c3.663-0.434,8.462-0.346,11.021-3.664c6.908-8.961,14.801-17.06,21.956-25.763c9.318-11.335,21.451-20.003,29.752-32.224
			c0.354-0.521,1.043-0.812,1.574-1.212c8.457-6.38,18.601-10.064,26.859-16.77c0.363-0.295,0.903-0.425,1.384-0.515
			c10.234-1.923,20.654-3.669,30.913-1.984c5.047,0.828,10.965,2.595,13.039,9.301c1.396,4.519,4.375,8.741,7.232,12.3
			c6.627,8.255,15.633,14.148,24.594,19.681c10.574,6.529,22.339,11.029,31.427,20.074c4.312,4.291,10.587,6.105,15.513,9.892
			c9.587,7.369,19.815,13.456,32.642,12.692c0.605-0.036,1.443,0.174,1.825,0.59c5.793,6.302,14.089,6.637,21.525,8.506
			c5.835,1.467,11.022,3.997,15.733,7.191c8.93,6.056,18.03,11.793,27.397,17.116c3.53,2.007,7.21,3.197,11.364,1.175
			c2.232-1.086,5.118-1.432,7.286-0.316c6.301,3.245,12.853,6.317,18.421,10.606c10.229,7.877,21.157,14.098,33.475,17.926
			c1.401,0.436,2.776,1.167,3.97,2.027c8.783,6.333,18.121,11.458,28.761,14.005c8.692,2.08,10.884,4.975,10.861,13.675
			c-0.021,8.331,0,16.663,0.001,24.994c0.014,156.023,0.027,312.049,0.039,468.072c0.006,70.345,0.008,140.691,0.01,211.036
			c0,8.773-0.006,8.781-8.523,8.781c-635.11,0.001-1270.221,0.002-1905.332-0.015C5.645,1081.616,3.322,1081.375,1,1081.246z"/>
		<path fill-rule="evenodd" clip-rule="evenodd" fill="none" d="M1,1081.246c2.322,0.129,4.645,0.37,6.967,0.37
			c635.111,0.017,1270.221,0.016,1905.332,0.015c8.518,0,8.523-0.008,8.523-8.781c-0.002-70.345-0.004-140.691-0.01-211.036
			c-0.012-156.023-0.025-312.049-0.039-468.072c-0.001-8.331-0.022-16.663-0.001-24.994c0.022-8.7-2.169-11.595-10.861-13.675
			c-10.64-2.547-19.978-7.672-28.761-14.005c-1.193-0.86-2.568-1.591-3.97-2.027c-12.317-3.828-23.245-10.049-33.475-17.926
			c-5.568-4.289-12.12-7.361-18.421-10.606c-2.168-1.116-5.054-0.77-7.286,0.316c-4.154,2.022-7.834,0.832-11.364-1.175
			c-9.367-5.323-18.468-11.06-27.397-17.116c-4.711-3.194-9.898-5.724-15.733-7.191c-7.437-1.869-15.732-2.204-21.525-8.506
			c-0.382-0.416-1.22-0.626-1.825-0.59c-12.826,0.764-23.055-5.324-32.642-12.692c-4.926-3.787-11.201-5.601-15.513-9.892
			c-9.088-9.045-20.853-13.545-31.427-20.074c-8.961-5.533-17.967-11.426-24.594-19.681c-2.857-3.559-5.836-7.781-7.232-12.3
			c-2.074-6.706-7.992-8.473-13.039-9.301c-10.259-1.685-20.679,0.061-30.913,1.984c-0.48,0.09-1.021,0.22-1.384,0.515
			c-8.259,6.706-18.402,10.389-26.859,16.77c-0.531,0.4-1.221,0.691-1.574,1.212c-8.301,12.221-20.434,20.889-29.752,32.224
			c-7.155,8.703-15.048,16.802-21.956,25.763c-2.559,3.318-7.357,3.23-11.021,3.664c-8.801,1.043-15.611,6.342-23.378,9.511
			c-2.993,1.221-5.312,3.996-8.191,5.615c-6.688,3.758-7.318,12.224-12.911,16.551c-11.563,8.946-19.296,21.73-31.857,29.892
			c-8.875,5.767-17.243,12.729-24.299,21.145c-4.438,5.291-11.484,7.839-17.997,10.417c-3.803,1.505-6.666,3.74-9.521,6.79
			c-3.649,3.897-8.571,6.65-13.104,9.655c-2.667,1.769-5.188,3.457-6.816,6.387c-1.924,3.461-6.227,3.619-9.063,5.93
			c-8.752,7.128-17.055,14.795-26.139,21.535c-2.691,1.998-5.238,3.502-8.639,2.936c-2.103-0.351-4.087-0.083-5.516,1.571
			c-4.666,5.408-9.535,10.783-12.674,17.195c-3.207,6.553-9.303,8.941-15.086,11.528c-2.783,1.245-5.876-1.464-8.524-3.193
			c-6.722-4.387-10.966-11.046-15.687-17.226c-4.413-5.775-9.687-10.064-16.589-12.646c-4.214-1.577-5.211-5.836-5.221-9.921
			c-0.006-2.598-0.689-3.959-2.898-5.631c-3.339-2.528-4.64-6.976-7.591-10.14c-4.102-4.396-7.888-8.698-14.828-6.838
			c-2.151,0.576-3.687-1.265-5.357-2.28c-5.785-3.513-11.185-4.175-16.866,0.665c-3.78,3.22-8.014,5.927-11.619,9.408
			c-2.194,2.118-5.07,2.492-7.892,2.566c-9.548,0.249-17.473,3.818-23.458,11.305c-2.793,3.494-6.509,5.652-10.321,7.652
			c-4.582,2.403-9.135,4.776-12.861,8.479c-0.804,0.799-1.929,1.715-2.957,1.78c-10.337,0.653-15.994,8.137-21.727,15.159
			c-2.387,2.923-4.801,3.619-7.725,2.331c-3.106-1.368-6.047-1.326-9.218-0.73c-1.438,0.27-3.229,0.532-4.418-0.071
			c-5.666-2.874-11.437-1.371-16.999-0.317c-4.385,0.83-7.907-0.511-10.407-3.275c-6.548-7.241-14.947-12.24-21.905-18.837
			c-7.48-7.094-15.626-13.365-23.159-20.361c-3.106-2.884-5.133-6.52-7.744-9.739c-4.344-5.358-10.649-7.885-16.174-11.534
			c-6.656-4.397-12.138-10.293-19.105-14.352c-6.779-3.949-12.262-3.51-17.17,2.487c-4.74,5.79-8.913,12.156-14.271,17.291
			c-4.297,4.117-8.423,8.929-14.424,10.94c-5.851,1.959-9.059,7.183-13.476,10.878c-4.305,3.601-8.218,7.767-11.808,12.096
			c-3.891,4.693-8.948,6.521-14.585,7.614c-5.356,1.04-10.7,2.154-16.01,3.404c-2.372,0.558-4.318,1.581-6.094,3.739
			c-3.3,4.012-8.566,4.211-13.322,4.451c-4.359,0.22-8.371,2.241-12.264,2.654c-9.396,0.995-17.027,9.183-27.151,6.237
			c-1.026-0.299-1.933,0.22-2.765,0.848c-5.464,4.13-10.378,3.257-15.674-0.844c-4.012-3.106-8.754-5.432-14.248-4.721
			c-1.72,0.223-2.836-0.759-3.897-1.837c-5.201-5.283-9.572-5.898-16.019-2.433c-2.001,1.076-4.218,2.558-6.514,0.769
			c-4.954-3.858-8.257-0.449-11.725,2.466c-4.958,4.168-10.232,6.34-17.012,4.497c-4.969-1.351-9.959-3.047-14.973-3.779
			c-4.572-0.666-9.55,0.313-14.169,1.362c-7.264,1.647-14.194,1.003-21.563,0.182c-8.771-0.978-17.473-4.483-26.845-1.417
			c-5.684,1.86-11.855,1.948-17.362-3.502c-6.096-6.036-19.076-2.113-24.706,5.939c-3.66,5.238-8.502,9.335-15.349,9.662
			c-4.514,0.216-7.321,3.516-10.83,5.497c-2.265,1.278-3.884,1.62-6.317,0.23c-5.999-3.427-7.448-3.035-10.719,2.73
			c-2.074,3.653-5.667,5.579-8.49,8.358c-1.961,1.933-4.258-0.111-5.955-0.884c-2.721-1.238-4.679-1.854-6.898,0.79
			c-1.784,2.125-4.926,1.381-7.3,2.663c-1.23,0.664-2.727-1.445-2.943-2.81c-0.734-4.636-4.556-5.588-7.93-6.504
			c-3.521-0.956-5.392-2.938-6.475-6.169c-3.452-10.299-8.11-12.912-18.822-13.332c-10.746-0.421-21.442-0.753-32.167,0.039
			c-3.443,0.254-5.706-1.382-6.998-4.498c-3.11-7.494-8.027-13.837-13.425-19.698c-5.13-5.571-11.529-8.815-19.569-7.892
			c-3.418,0.393-5.49,2.977-8.179,4.415c-12.619,6.749-26.435,11.112-38.409,19.044c-8.097,5.362-16.593,9.689-25.678,13.127
			c-3.256,1.232-6.948,3.751-8.445,6.699c-3.332,6.555-9.24,8.842-15.182,11.289c-7.917,3.261-14.817,8.22-22.069,12.597
			c-0.424,0.257-0.98,0.495-1.182,0.891c-5.945,11.661-16.83,10.575-27.28,10.594c-0.658,0.001-1.502-0.468-1.946-0.199
			c-6.186,3.739-13.77,1.617-19.871,4.304c-8.77,3.862-18.618,3.593-27.074,8.115c-0.406,0.218-1.021,0.267-1.473,0.146
			c-10.616-2.816-22.292-0.031-32.286-6.28c-5.308-3.319-11.718-3.598-17.569-5.348c-3.633-1.085-7.01-2.104-9.586-4.69
			c-7.697-7.725-18.331-10.699-26.935-16.935c-0.858-0.622-2.253-0.889-3.331-0.758c-7.843,0.96-14.853-3.202-22.487-3.523
			c-6.132-0.259-9.307-4.655-11.944-9.374c-3.685-6.595-9.998-10.082-16.663-10.246c-4.64-0.113-10.138,1.608-14.644,4.232
			c-5.168,3.012-10.36,6.094-14.457,10.543c-7.174,7.792-16.135,10.577-26.445,10.036c-1.466-0.077-2.961,0.373-4.442,0.579
			C1,315.252,1.015,160.399,0.914,5.544C0.912,1.901,1.601,0.899,5.457,0.899c637.42,0.104,1274.84,0.105,1912.259-0.013
			c4.115-0.001,4.829,0.898,4.828,4.893c-0.114,357.215-0.114,714.429-0.006,1071.644c0.001,3.906-0.572,4.942-4.779,4.941
			c-637.419-0.125-1274.839-0.118-1912.258-0.181C4.037,1082.185,2.109,1083.339,1,1081.246z"/>
	</g>
</g>
</svg>
